<svg xmlns="http://www.w3.org/2000/svg" viewBox="0 0 750 500"><g id="freepik--background-complete--inject-64"><g><g><g><g><path d="M673.73379,319.3859h-180.7461c-3.2324,0-5.8623-2.6298-5.8623-5.8623V50.2502c0-3.2324,2.6299-5.8618,5.8623-5.8618h180.7461c3.2323,0,5.86221,2.6294,5.86221,5.8618V313.5236c0,3.2325-2.62991,5.8623-5.86221,5.8623ZM492.98769,44.6384c-3.09469,0-5.6123,2.5176-5.6123,5.6118V313.5236c0,3.0948,2.51761,5.6123,5.6123,5.6123h180.7461c3.0946,0,5.61221-2.5175,5.61221-5.6123V50.2502c0-3.0942-2.51761-5.6118-5.61221-5.6118h-180.7461Z" style="fill:#e0e0e0;"></path><path d="M465.30609,319.3859h-180.7466c-3.2324,0-5.8618-2.6298-5.8618-5.8623V50.2502c0-3.2324,2.6294-5.8618,5.8618-5.8618h180.7466c3.2324,0,5.8623,2.6294,5.8623,5.8618V313.5236c0,3.2325-2.6299,5.8623-5.8623,5.8623ZM284.5595,44.6384c-3.0942,0-5.6118,2.5176-5.6118,5.6118V313.5236c0,3.0948,2.5176,5.6123,5.6118,5.6123h180.7466c3.0947,0,5.6123-2.5175,5.6123-5.6123V50.2502c0-3.0942-2.5176-5.6118-5.6123-5.6118h-180.7466Z" style="fill:#e0e0e0;"></path></g><path d="M257.0123,319.3859H76.2658c-3.2324,0-5.8618-2.6298-5.8618-5.8623V50.2502c0-3.2324,2.6294-5.8618,5.8618-5.8618h180.7465c3.2324,0,5.8623,2.6294,5.8623,5.8618V313.5236c0,3.2325-2.6299,5.8623-5.8623,5.8623ZM76.2658,44.6384c-3.0942,0-5.6118,2.5176-5.6118,5.6118V313.5236c0,3.0948,2.5176,5.6123,5.6118,5.6123h180.7465c3.0948,0,5.6123-2.5175,5.6123-5.6123V50.2502c0-3.0942-2.5175-5.6118-5.6123-5.6118H76.2658Z" style="fill:#e0e0e0;"></path></g><rect y="380.4553" width="750" height=".1204" style="fill:#e0e0e0;"></rect></g><g><rect x="653.62639" y="409.8314" width="55.7291" height=".4206" style="fill:#ebebeb;"></rect><rect x="495.04359" y="414.3971" width="14.6268" height=".4206" style="fill:#ebebeb;"></rect><rect x="40.6445" y="397.0341" width="72.6745" height=".4207" style="fill:#ebebeb;"></rect><rect x="128.2991" y="397.0341" width="10.6555" height=".4207" style="fill:#ebebeb;"></rect><rect x="173.5856" y="404.1382" width="157.61289" height=".4206" style="fill:#ebebeb;"></rect></g></g><path d="M332.31109,77.2624c-2.1396-1.6165-5.2613-1.7997-7.5753-.4443-3.0713-6.2066-11.6303-8.9457-17.7344-5.6756-1.5925-6.688-8.182-11.8286-15.0565-11.7461-6.8745,.0827-13.3384,5.3804-14.7694,12.105-.2275,1.0685-.378,2.2393-1.1424,3.02-1.2417,1.2681-3.3148,.8426-5.0842,.7045-5.5674-.4342-11.1694,3.4744-12.6835,8.8495l76.6695-.2791c.6715-2.596-.4842-4.9174-2.6238-6.5339Z" style="fill:#e6e6e6;"></path><path d="M411.34749,111.7744c-1.3567-1.025-3.3361-1.1412-4.8034-.2818-1.9475-3.9354-7.3746-5.6723-11.2452-3.5988-1.0097-4.2407-5.1881-7.5003-9.5471-7.448-4.359,.0524-8.4577,3.4117-9.3651,7.6756-.1442,.6775-.2396,1.4199-.7243,1.915-.78739,.8041-2.1019,.5342-3.2239,.4467-3.5302-.2754-7.0823,2.2031-8.0424,5.6113l48.6151-.177c.42581-1.646-.307-3.118-1.6637-4.143Z" style="fill:#e6e6e6;"></path><path d="M553.632,67.4154c-1.35671-1.0251-3.33611-1.1412-4.80341-.2818-1.9475-3.9355-7.37459-5.6723-11.2452-3.5988-1.0097-4.2407-5.1881-7.5003-9.5471-7.448-4.359,.0524-8.4577,3.4116-9.3651,7.6756-.14419,.6775-.2396,1.4199-.7243,1.9149-.7874,.8041-2.10189,.5343-3.22389,.4467-3.53021-.2753-7.08231,2.2031-8.04241,5.6114l48.6151-.177c.4258-1.6461-.307-3.118-1.66369-4.143Z" style="fill:#f5f5f5;"></path><path d="M119.17418,94.6498c-2.1397-1.6165-5.26128-1.7997-7.57538-.4443-3.0712-6.2066-11.6303-8.9457-17.7344-5.6756-1.5924-6.688-8.182-11.8286-15.0564-11.7461-6.8746,.0827-13.3385,5.3804-14.7695,12.1049-.2274,1.0686-.378,2.2394-1.1424,3.0201-1.2416,1.2681-3.3147,.8426-5.0842,.7045-5.5674-.4342-11.1693,3.4744-12.6835,8.8495l76.66948-.2791c.6715-2.596-.4842-4.9174-2.6237-6.5339Z" style="fill:#e6e6e6;"></path><path d="M215.2492,134.449c-1.452-1.0969-3.5704-1.2212-5.1406-.3015-2.0841-4.2117-7.8922-6.0705-12.0345-3.8514-1.0807-4.5384-5.5523-8.0269-10.2173-7.9708-4.6649,.0561-9.0513,3.6511-10.0224,8.2143-.1543,.7251-.2565,1.5197-.7752,2.0494-.8426,.8606-2.2494,.5718-3.4501,.4781-3.7781-.2947-7.5795,2.3577-8.607,6.0052l52.0276-.1894c.4556-1.7616-.3286-3.3369-1.7805-4.4339Z" style="fill:#f5f5f5;"></path><path d="M163.1232,222.3626c-1.4519-1.097-3.5703-1.2213-5.1405-.3015-2.0842-4.2117-7.8923-6.0705-12.0346-3.8515-1.0806-4.5384-5.5523-8.0268-10.2172-7.9707-4.66503,.056-9.05143,3.6511-10.02252,8.2143-.1543,.7251-.2565,1.5197-.7752,2.0494-.8426,.8606-2.24941,.5718-3.4501,.478-3.778-.2946-7.57947,2.3578-8.60697,6.0052l52.0276-.1893c.4557-1.7617-.3286-3.337-1.7805-4.4339Z" style="fill:#f5f5f5;"></path><path d="M700.10139,109.6591c-1.452-1.0969-3.57039-1.2213-5.1406-.3015-2.0842-4.2117-7.8923-6.0705-12.0345-3.8515-1.0807-4.5384-5.55229-8.0268-10.21729-7.9707-4.66491,.056-9.05141,3.6511-10.02241,8.2143-.1544,.7251-.2565,1.5197-.7752,2.0494-.8426,.8606-2.24939,.5718-3.4502,.478-3.778-.2946-7.5794,2.3578-8.6069,6.0053l52.0276-.1894c.4556-1.7616-.3287-3.337-1.7805-4.4339Z" style="fill:#f5f5f5;"></path><g id="freepik--freepik--background-complete--inject-481--inject-64"><polygon points="667.089 222.982 666.24569 178.7649 640.35919 178.7649 640.35919 188.8486 621.29979 188.8486 621.29979 78.3943 584.65229 78.3943 584.65229 121.8683 573.65679 121.8683 573.65679 100.1591 545.06179 100.1591 545.06179 206.0317 504.74139 206.0317 504.74139 168.6258 479.46009 168.6258 479.46009 87.5241 448.258 87.5241 448.258 141.5919 418.933 141.5919 418.933 258.0695 396.21229 258.0695 396.21229 201.3504 372.75 201.3504 372.75 164.8541 347.82779 164.8541 347.82779 136.8328 320.0206 150.8768 320.0206 225.844 290.6956 225.844 290.6956 210.3803 251.5224 210.3803 251.5224 319.0373 707.49039 319.248 707.49039 222.982 667.089 222.982" style="fill:#ebebeb;"></polygon><path d="M374.66169,319.0947V157.4328h-31.1556v161.8152c9.86-.2329,31.1556-.1533,31.1556-.1533Z" style="fill:#e6e6e6;"></path><path d="M346.28689,319.248v-88.9111h-64.1187v88.7145l64.1187,.1966Z" style="fill:#fafafa;"></path><path d="M424.19329,319.1171V188.5934h-36.3231v130.5069l36.3231,.0168Z" style="fill:#e0e0e0;"></path><rect x="390.62769" y="193.7073" width="4.4028" height="8.6971" style="fill:#fafafa;"></rect><rect x="399.43329" y="193.7073" width="4.4028" height="8.6971" style="fill:#fafafa;"></rect><rect x="408.23889" y="193.7073" width="4.4028" height="8.6971" style="fill:#fafafa;"></rect><rect x="417.04459" y="193.7073" width="4.4028" height="8.6971" style="fill:#fafafa;"></rect><rect x="390.62769" y="208.2948" width="4.4028" height="8.6969" style="fill:#fafafa;"></rect><rect x="399.43329" y="208.2948" width="4.4028" height="8.6969" style="fill:#fafafa;"></rect><rect x="408.23889" y="208.2948" width="4.4028" height="8.6969" style="fill:#fafafa;"></rect><rect x="417.04459" y="208.2948" width="4.4028" height="8.6969" style="fill:#fafafa;"></rect><rect x="390.62769" y="222.8712" width="4.4028" height="8.6969" style="fill:#fafafa;"></rect><rect x="399.43329" y="222.8712" width="4.4028" height="8.6969" style="fill:#fafafa;"></rect><rect x="408.23889" y="222.8712" width="4.4028" height="8.6969" style="fill:#fafafa;"></rect><rect x="417.04459" y="222.8712" width="4.4028" height="8.6969" style="fill:#fafafa;"></rect><rect x="390.62769" y="237.4475" width="4.4028" height="8.697" style="fill:#fafafa;"></rect><rect x="399.43329" y="237.4475" width="4.4028" height="8.697" style="fill:#fafafa;"></rect><rect x="408.23889" y="237.4475" width="4.4028" height="8.697" style="fill:#fafafa;"></rect><rect x="417.04459" y="237.4475" width="4.4028" height="8.697" style="fill:#fafafa;"></rect><rect x="390.62769" y="252.0238" width="4.4028" height="8.697" style="fill:#fafafa;"></rect><rect x="399.43329" y="252.0238" width="4.4028" height="8.697" style="fill:#fafafa;"></rect><rect x="408.23889" y="252.0238" width="4.4028" height="8.697" style="fill:#fafafa;"></rect><rect x="417.04459" y="252.0238" width="4.4028" height="8.697" style="fill:#fafafa;"></rect><rect x="390.62769" y="266.6002" width="4.4028" height="8.6969" style="fill:#fafafa;"></rect><rect x="399.43329" y="266.6002" width="4.4028" height="8.6969" style="fill:#fafafa;"></rect><rect x="408.23889" y="266.6002" width="4.4028" height="8.6969" style="fill:#fafafa;"></rect><rect x="417.04459" y="266.6002" width="4.4028" height="8.6969" style="fill:#fafafa;"></rect><rect x="390.62769" y="281.1766" width="4.4028" height="8.6969" style="fill:#fafafa;"></rect><rect x="399.43329" y="281.1766" width="4.4028" height="8.6969" style="fill:#fafafa;"></rect><rect x="408.23889" y="281.1766" width="4.4028" height="8.6969" style="fill:#fafafa;"></rect><rect x="417.04459" y="281.1766" width="4.4028" height="8.6969" style="fill:#fafafa;"></rect><rect x="390.62769" y="295.7639" width="4.4028" height="8.6971" style="fill:#fafafa;"></rect><rect x="399.43329" y="295.7639" width="4.4028" height="8.6971" style="fill:#fafafa;"></rect><rect x="408.23889" y="295.7639" width="4.4028" height="8.6971" style="fill:#fafafa;"></rect><rect x="417.04459" y="295.7639" width="4.4028" height="8.6971" style="fill:#fafafa;"></rect><path d="M550.41459,319.1754V170.0013h-75.311v149.2246s74.734,.0221,75.311-.0505Z" style="fill:#f5f5f5;"></path><rect x="480.75759" y="175.9473" width="9.1301" height="10.0171" style="fill:#e6e6e6;"></rect><rect x="499.02929" y="175.9473" width="9.13" height="10.0171" style="fill:#e6e6e6;"></rect><rect x="517.28939" y="175.9473" width="9.13" height="10.0171" style="fill:#e6e6e6;"></rect><rect x="535.56089" y="175.9473" width="9.13011" height="10.0171" style="fill:#e6e6e6;"></rect><rect x="480.75759" y="192.7533" width="9.1301" height="10.0171" style="fill:#e6e6e6;"></rect><rect x="499.02929" y="192.7533" width="9.13" height="10.0171" style="fill:#e6e6e6;"></rect><rect x="517.28939" y="192.7533" width="9.13" height="10.0171" style="fill:#e6e6e6;"></rect><rect x="535.56089" y="192.7533" width="9.13011" height="10.0171" style="fill:#e6e6e6;"></rect><rect x="480.75759" y="209.5482" width="9.1301" height="10.0172" style="fill:#e6e6e6;"></rect><rect x="499.02929" y="209.5482" width="9.13" height="10.0172" style="fill:#e6e6e6;"></rect><rect x="517.28939" y="209.5482" width="9.13" height="10.0172" style="fill:#e6e6e6;"></rect><rect x="535.56089" y="209.5482" width="9.13011" height="10.0172" style="fill:#e6e6e6;"></rect><rect x="480.75759" y="226.3432" width="9.1301" height="10.0172" style="fill:#e6e6e6;"></rect><rect x="499.02929" y="226.3432" width="9.13" height="10.0172" style="fill:#e6e6e6;"></rect><rect x="517.28939" y="226.3432" width="9.13" height="10.0172" style="fill:#e6e6e6;"></rect><rect x="535.56089" y="226.3432" width="9.13011" height="10.0172" style="fill:#e6e6e6;"></rect><rect x="480.75759" y="243.1493" width="9.1301" height="10.017" style="fill:#e6e6e6;"></rect><rect x="499.02929" y="243.1493" width="9.13" height="10.017" style="fill:#e6e6e6;"></rect><rect x="517.28939" y="243.1493" width="9.13" height="10.017" style="fill:#e6e6e6;"></rect><rect x="535.56089" y="243.1493" width="9.13011" height="10.017" style="fill:#e6e6e6;"></rect><rect x="480.75759" y="259.9443" width="9.1301" height="10.017" style="fill:#e6e6e6;"></rect><rect x="499.02929" y="259.9443" width="9.13" height="10.017" style="fill:#e6e6e6;"></rect><rect x="517.28939" y="259.9443" width="9.13" height="10.017" style="fill:#e6e6e6;"></rect><rect x="535.56089" y="259.9443" width="9.13011" height="10.017" style="fill:#e6e6e6;"></rect><rect x="480.75759" y="276.7504" width="9.1301" height="10.0171" style="fill:#e6e6e6;"></rect><rect x="499.02929" y="276.7504" width="9.13" height="10.0171" style="fill:#e6e6e6;"></rect><rect x="517.28939" y="276.7504" width="9.13" height="10.0171" style="fill:#e6e6e6;"></rect><rect x="535.56089" y="276.7504" width="9.13011" height="10.0171" style="fill:#e6e6e6;"></rect><rect x="480.75759" y="293.5453" width="9.1301" height="10.0171" style="fill:#e6e6e6;"></rect><rect x="499.02929" y="293.5453" width="9.13" height="10.0171" style="fill:#e6e6e6;"></rect><rect x="517.28939" y="293.5453" width="9.13" height="10.0171" style="fill:#e6e6e6;"></rect><rect x="535.56089" y="293.5453" width="9.13011" height="10.0171" style="fill:#e6e6e6;"></rect><rect x="349.25059" y="168.4206" width="8.4133" height="9.2307" style="fill:#fafafa;"></rect><rect x="349.25059" y="183.8973" width="8.4133" height="9.2307" style="fill:#fafafa;"></rect><rect x="349.25059" y="199.3841" width="8.4133" height="9.2307" style="fill:#fafafa;"></rect><rect x="349.25059" y="214.8608" width="8.4133" height="9.2307" style="fill:#fafafa;"></rect><rect x="349.25059" y="230.3374" width="8.4133" height="9.2308" style="fill:#fafafa;"></rect><rect x="349.25059" y="245.8244" width="8.4133" height="9.2308" style="fill:#fafafa;"></rect><rect x="349.25059" y="261.301" width="8.4133" height="9.2308" style="fill:#fafafa;"></rect><rect x="349.25059" y="276.7879" width="8.4133" height="9.2308" style="fill:#fafafa;"></rect><rect x="360.50389" y="168.4206" width="8.4135" height="9.2307" style="fill:#fafafa;"></rect><rect x="360.50389" y="183.8973" width="8.4135" height="9.2307" style="fill:#fafafa;"></rect><rect x="360.50389" y="199.3841" width="8.4135" height="9.2307" style="fill:#fafafa;"></rect><rect x="360.50389" y="214.8608" width="8.4135" height="9.2307" style="fill:#fafafa;"></rect><rect x="360.50389" y="230.3374" width="8.4135" height="9.2308" style="fill:#fafafa;"></rect><rect x="360.50389" y="245.8244" width="8.4135" height="9.2308" style="fill:#fafafa;"></rect><rect x="360.50389" y="261.301" width="8.4135" height="9.2308" style="fill:#fafafa;"></rect><rect x="360.50389" y="276.7879" width="8.4135" height="9.2308" style="fill:#fafafa;"></rect><rect x="455.39519" y="98.2527" width="9.13" height="10.0171" style="fill:#fafafa;"></rect><rect x="455.39519" y="115.0477" width="9.13" height="10.017" style="fill:#fafafa;"></rect><rect x="455.39519" y="130.6985" width="9.13" height="10.0171" style="fill:#fafafa;"></rect><rect x="455.39519" y="147.4934" width="9.13" height="10.0171" style="fill:#fafafa;"></rect><rect x="455.39519" y="164.2883" width="9.13" height="10.0172" style="fill:#fafafa;"></rect><rect x="455.39519" y="181.0944" width="9.13" height="10.0172" style="fill:#fafafa;"></rect><rect x="455.39519" y="197.8895" width="9.13" height="10.017" style="fill:#fafafa;"></rect><rect x="455.39519" y="214.6955" width="9.13" height="10.017" style="fill:#fafafa;"></rect><rect x="592.54249" y="83.6859" width="9.1301" height="10.017" style="fill:#fafafa;"></rect><rect x="592.54249" y="100.4809" width="9.1301" height="10.0171" style="fill:#fafafa;"></rect><rect x="592.54249" y="117.2869" width="9.1301" height="10.0171" style="fill:#fafafa;"></rect><rect x="592.54249" y="134.0818" width="9.1301" height="10.0172" style="fill:#fafafa;"></rect><rect x="592.54249" y="150.8878" width="9.1301" height="10.0172" style="fill:#fafafa;"></rect><rect x="592.54249" y="167.6829" width="9.1301" height="10.017" style="fill:#fafafa;"></rect><rect x="592.54249" y="184.489" width="9.1301" height="10.017" style="fill:#fafafa;"></rect><rect x="592.54249" y="201.284" width="9.1301" height="10.0169" style="fill:#fafafa;"></rect><rect x="612.10029" y="160.8606" width="54.98871" height="158.3874" style="fill:#e6e6e6;"></rect><rect x="620.23379" y="168.6702" width="16.1166" height="10.017" style="fill:#fafafa;"></rect><rect x="620.23379" y="185.4763" width="16.1166" height="10.017" style="fill:#fafafa;"></rect><rect x="620.23379" y="202.2712" width="16.1166" height="10.017" style="fill:#fafafa;"></rect><rect x="620.23379" y="219.0773" width="16.1166" height="10.0171" style="fill:#fafafa;"></rect><rect x="620.23379" y="235.8723" width="16.1166" height="10.0171" style="fill:#fafafa;"></rect><rect x="620.23379" y="252.6672" width="16.1166" height="10.0172" style="fill:#fafafa;"></rect><rect x="620.23379" y="269.4732" width="16.1166" height="10.0172" style="fill:#fafafa;"></rect><rect x="620.23379" y="286.2683" width="16.1166" height="10.017" style="fill:#fafafa;"></rect><rect x="641.796" y="168.6702" width="16.11659" height="10.017" style="fill:#fafafa;"></rect><rect x="641.796" y="185.4763" width="16.11659" height="10.017" style="fill:#fafafa;"></rect><rect x="641.796" y="202.2712" width="16.11659" height="10.017" style="fill:#fafafa;"></rect><rect x="641.796" y="219.0773" width="16.11659" height="10.0171" style="fill:#fafafa;"></rect><rect x="641.796" y="235.8723" width="16.11659" height="10.0171" style="fill:#fafafa;"></rect><rect x="641.796" y="252.6672" width="16.11659" height="10.0172" style="fill:#fafafa;"></rect><rect x="641.796" y="269.4732" width="16.11659" height="10.0172" style="fill:#fafafa;"></rect><rect x="641.796" y="286.2683" width="16.11659" height="10.017" style="fill:#fafafa;"></rect><path d="M582.11479,319.1902v-109.642h-23.9837v109.6308l23.9837,.0112Z" style="fill:#e0e0e0;"></path><rect x="559.95019" y="213.9856" width="2.9082" height="7.4656" style="fill:#fafafa;"></rect><rect x="565.76649" y="213.9856" width="2.9081" height="7.4656" style="fill:#fafafa;"></rect><rect x="571.57129" y="213.9856" width="2.9081" height="7.4656" style="fill:#fafafa;"></rect><rect x="577.38759" y="213.9856" width="2.9082" height="7.4656" style="fill:#fafafa;"></rect><rect x="559.95019" y="226.5096" width="2.9082" height="7.4657" style="fill:#fafafa;"></rect><rect x="565.76649" y="226.5096" width="2.9081" height="7.4657" style="fill:#fafafa;"></rect><rect x="571.57129" y="226.5096" width="2.9081" height="7.4657" style="fill:#fafafa;"></rect><rect x="577.38759" y="226.5096" width="2.9082" height="7.4657" style="fill:#fafafa;"></rect><rect x="559.95019" y="239.0338" width="2.9082" height="7.4657" style="fill:#fafafa;"></rect><rect x="565.76649" y="239.0338" width="2.9081" height="7.4657" style="fill:#fafafa;"></rect><rect x="571.57129" y="239.0338" width="2.9081" height="7.4657" style="fill:#fafafa;"></rect><rect x="577.38759" y="239.0338" width="2.9082" height="7.4657" style="fill:#fafafa;"></rect><rect x="559.95019" y="251.5579" width="2.9082" height="7.4656" style="fill:#fafafa;"></rect><rect x="565.76649" y="251.5579" width="2.9081" height="7.4656" style="fill:#fafafa;"></rect><rect x="571.57129" y="251.5579" width="2.9081" height="7.4656" style="fill:#fafafa;"></rect><rect x="577.38759" y="251.5579" width="2.9082" height="7.4656" style="fill:#fafafa;"></rect><rect x="559.95019" y="264.0931" width="2.9082" height="7.4657" style="fill:#fafafa;"></rect><rect x="565.76649" y="264.0931" width="2.9081" height="7.4657" style="fill:#fafafa;"></rect><rect x="571.57129" y="264.0931" width="2.9081" height="7.4657" style="fill:#fafafa;"></rect><rect x="577.38759" y="264.0931" width="2.9082" height="7.4657" style="fill:#fafafa;"></rect><rect x="559.95019" y="276.6173" width="2.9082" height="7.4657" style="fill:#fafafa;"></rect><rect x="565.76649" y="276.6173" width="2.9081" height="7.4657" style="fill:#fafafa;"></rect><rect x="571.57129" y="276.6173" width="2.9081" height="7.4657" style="fill:#fafafa;"></rect><rect x="577.38759" y="276.6173" width="2.9082" height="7.4657" style="fill:#fafafa;"></rect><rect x="559.95019" y="289.1415" width="2.9082" height="7.4656" style="fill:#fafafa;"></rect><rect x="565.76649" y="289.1415" width="2.9081" height="7.4656" style="fill:#fafafa;"></rect><rect x="571.57129" y="289.1415" width="2.9081" height="7.4656" style="fill:#fafafa;"></rect><rect x="577.38759" y="289.1415" width="2.9082" height="7.4656" style="fill:#fafafa;"></rect><rect x="559.95019" y="301.6654" width="2.9082" height="7.4658" style="fill:#fafafa;"></rect><rect x="565.76649" y="301.6654" width="2.9081" height="7.4658" style="fill:#fafafa;"></rect><rect x="571.57129" y="301.6654" width="2.9081" height="7.4658" style="fill:#fafafa;"></rect><rect x="577.38759" y="301.6654" width="2.9082" height="7.4658" style="fill:#fafafa;"></rect><rect x="287.0228" y="234.053" width="7.7744" height="6.2676" style="fill:#e6e6e6;"></rect><rect x="302.5717" y="234.053" width="7.7744" height="6.2676" style="fill:#e6e6e6;"></rect><rect x="318.109" y="234.053" width="7.77429" height="6.2676" style="fill:#e6e6e6;"></rect><rect x="333.65769" y="234.053" width="7.7745" height="6.2676" style="fill:#e6e6e6;"></rect><rect x="287.0228" y="244.5582" width="7.7744" height="6.2675" style="fill:#e6e6e6;"></rect><rect x="302.5717" y="244.5582" width="7.7744" height="6.2675" style="fill:#e6e6e6;"></rect><rect x="318.109" y="244.5582" width="7.77429" height="6.2675" style="fill:#e6e6e6;"></rect><rect x="333.65769" y="244.5582" width="7.7745" height="6.2675" style="fill:#e6e6e6;"></rect><rect x="287.0228" y="255.0634" width="7.7744" height="6.2675" style="fill:#e6e6e6;"></rect><rect x="302.5717" y="255.0634" width="7.7744" height="6.2675" style="fill:#e6e6e6;"></rect><rect x="318.109" y="255.0634" width="7.77429" height="6.2675" style="fill:#e6e6e6;"></rect><rect x="333.65769" y="255.0634" width="7.7745" height="6.2675" style="fill:#e6e6e6;"></rect><rect x="287.0228" y="265.5685" width="7.7744" height="6.2676" style="fill:#e6e6e6;"></rect><rect x="302.5717" y="265.5685" width="7.7744" height="6.2676" style="fill:#e6e6e6;"></rect><rect x="318.109" y="265.5685" width="7.77429" height="6.2676" style="fill:#e6e6e6;"></rect><rect x="333.65769" y="265.5685" width="7.7745" height="6.2676" style="fill:#e6e6e6;"></rect><rect x="287.0228" y="276.0626" width="7.7744" height="6.2676" style="fill:#e6e6e6;"></rect><rect x="302.5717" y="276.0626" width="7.7744" height="6.2676" style="fill:#e6e6e6;"></rect><rect x="318.109" y="276.0626" width="7.77429" height="6.2676" style="fill:#e6e6e6;"></rect><rect x="333.65769" y="276.0626" width="7.7745" height="6.2676" style="fill:#e6e6e6;"></rect><rect x="287.0228" y="286.5678" width="7.7744" height="6.2675" style="fill:#e6e6e6;"></rect><rect x="302.5717" y="286.5678" width="7.7744" height="6.2675" style="fill:#e6e6e6;"></rect><rect x="318.109" y="286.5678" width="7.77429" height="6.2675" style="fill:#e6e6e6;"></rect><rect x="333.65769" y="286.5678" width="7.7745" height="6.2675" style="fill:#e6e6e6;"></rect><rect x="287.0228" y="297.073" width="7.7744" height="6.2676" style="fill:#e6e6e6;"></rect><rect x="302.5717" y="297.073" width="7.7744" height="6.2676" style="fill:#e6e6e6;"></rect><rect x="318.109" y="297.073" width="7.77429" height="6.2676" style="fill:#e6e6e6;"></rect><rect x="333.65769" y="297.073" width="7.7745" height="6.2676" style="fill:#e6e6e6;"></rect></g><g id="freepik--freepik--background-complete--inject-481-2--inject-64"><g><path d="M258.8815,319.1456V119.8068h55.4735v199.313l-55.4735,.0258Z" style="fill:#e0e0e0;"></path><rect x="303.4196" y="127.6169" width="6.724" height="13.2823" style="fill:#fafafa;"></rect><rect x="289.9715" y="127.6169" width="6.724" height="13.2823" style="fill:#fafafa;"></rect><rect x="276.5234" y="127.6169" width="6.724" height="13.2823" style="fill:#fafafa;"></rect><rect x="263.0751" y="127.6169" width="6.7241" height="13.2823" style="fill:#fafafa;"></rect><rect x="303.4196" y="149.8952" width="6.724" height="13.2821" style="fill:#fafafa;"></rect><rect x="289.9715" y="149.8952" width="6.724" height="13.2821" style="fill:#fafafa;"></rect><rect x="276.5234" y="149.8952" width="6.724" height="13.2821" style="fill:#fafafa;"></rect><rect x="263.0751" y="149.8952" width="6.7241" height="13.2821" style="fill:#fafafa;"></rect><rect x="303.4196" y="172.1566" width="6.724" height="13.2822" style="fill:#fafafa;"></rect><rect x="289.9715" y="172.1566" width="6.724" height="13.2822" style="fill:#fafafa;"></rect><rect x="276.5234" y="172.1566" width="6.724" height="13.2822" style="fill:#fafafa;"></rect><rect x="263.0751" y="172.1566" width="6.7241" height="13.2822" style="fill:#fafafa;"></rect><rect x="303.4196" y="194.4179" width="6.724" height="13.2823" style="fill:#fafafa;"></rect><rect x="289.9715" y="194.4179" width="6.724" height="13.2823" style="fill:#fafafa;"></rect><rect x="276.5234" y="194.4179" width="6.724" height="13.2823" style="fill:#fafafa;"></rect><rect x="263.0751" y="194.4179" width="6.7241" height="13.2823" style="fill:#fafafa;"></rect><rect x="303.4196" y="216.6792" width="6.724" height="13.2821" style="fill:#fafafa;"></rect><rect x="289.9715" y="216.6792" width="6.724" height="13.2821" style="fill:#fafafa;"></rect><rect x="276.5234" y="216.6792" width="6.724" height="13.2821" style="fill:#fafafa;"></rect><rect x="263.0751" y="216.6792" width="6.7241" height="13.2821" style="fill:#fafafa;"></rect><rect x="303.4196" y="238.9405" width="6.724" height="13.2821" style="fill:#fafafa;"></rect><rect x="289.9715" y="238.9405" width="6.724" height="13.2821" style="fill:#fafafa;"></rect><rect x="276.5234" y="238.9405" width="6.724" height="13.2821" style="fill:#fafafa;"></rect><rect x="263.0751" y="238.9405" width="6.7241" height="13.2821" style="fill:#fafafa;"></rect><rect x="303.4196" y="261.2019" width="6.724" height="13.2822" style="fill:#fafafa;"></rect><rect x="289.9715" y="261.2019" width="6.724" height="13.2822" style="fill:#fafafa;"></rect><rect x="276.5234" y="261.2019" width="6.724" height="13.2822" style="fill:#fafafa;"></rect><rect x="263.0751" y="261.2019" width="6.7241" height="13.2822" style="fill:#fafafa;"></rect><rect x="303.4196" y="283.48" width="6.724" height="13.2823" style="fill:#fafafa;"></rect><rect x="289.9715" y="283.48" width="6.724" height="13.2823" style="fill:#fafafa;"></rect><rect x="276.5234" y="283.48" width="6.724" height="13.2823" style="fill:#fafafa;"></rect><rect x="263.0751" y="283.48" width="6.7241" height="13.2823" style="fill:#fafafa;"></rect></g><g><path d="M180.3498,319.1754V170.0013h75.311v149.2246s-74.734,.0221-75.311-.0505Z" style="fill:#f5f5f5;"></path><rect x="240.8767" y="175.9473" width="9.1301" height="10.0171" style="fill:#e6e6e6;"></rect><rect x="222.6051" y="175.9473" width="9.13" height="10.0171" style="fill:#e6e6e6;"></rect><rect x="204.345" y="175.9473" width="9.13" height="10.0171" style="fill:#e6e6e6;"></rect><rect x="186.0734" y="175.9473" width="9.1301" height="10.0171" style="fill:#e6e6e6;"></rect><rect x="240.8767" y="192.7533" width="9.1301" height="10.0171" style="fill:#e6e6e6;"></rect><rect x="222.6051" y="192.7533" width="9.13" height="10.0171" style="fill:#e6e6e6;"></rect><rect x="204.345" y="192.7533" width="9.13" height="10.0171" style="fill:#e6e6e6;"></rect><rect x="186.0734" y="192.7533" width="9.1301" height="10.0171" style="fill:#e6e6e6;"></rect><rect x="240.8767" y="209.5482" width="9.1301" height="10.0172" style="fill:#e6e6e6;"></rect><rect x="222.6051" y="209.5482" width="9.13" height="10.0172" style="fill:#e6e6e6;"></rect><rect x="204.345" y="209.5482" width="9.13" height="10.0172" style="fill:#e6e6e6;"></rect><rect x="186.0734" y="209.5482" width="9.1301" height="10.0172" style="fill:#e6e6e6;"></rect><rect x="240.8767" y="226.3432" width="9.1301" height="10.0172" style="fill:#e6e6e6;"></rect><rect x="222.6051" y="226.3432" width="9.13" height="10.0172" style="fill:#e6e6e6;"></rect><rect x="204.345" y="226.3432" width="9.13" height="10.0172" style="fill:#e6e6e6;"></rect><rect x="186.0734" y="226.3432" width="9.1301" height="10.0172" style="fill:#e6e6e6;"></rect><rect x="240.8767" y="243.1493" width="9.1301" height="10.017" style="fill:#e6e6e6;"></rect><rect x="222.6051" y="243.1493" width="9.13" height="10.017" style="fill:#e6e6e6;"></rect><rect x="204.345" y="243.1493" width="9.13" height="10.017" style="fill:#e6e6e6;"></rect><rect x="186.0734" y="243.1493" width="9.1301" height="10.017" style="fill:#e6e6e6;"></rect><rect x="240.8767" y="259.9443" width="9.1301" height="10.017" style="fill:#e6e6e6;"></rect><rect x="222.6051" y="259.9443" width="9.13" height="10.017" style="fill:#e6e6e6;"></rect><rect x="204.345" y="259.9443" width="9.13" height="10.017" style="fill:#e6e6e6;"></rect><rect x="186.0734" y="259.9443" width="9.1301" height="10.017" style="fill:#e6e6e6;"></rect><rect x="240.8767" y="276.7504" width="9.1301" height="10.0171" style="fill:#e6e6e6;"></rect><rect x="222.6051" y="276.7504" width="9.13" height="10.0171" style="fill:#e6e6e6;"></rect><rect x="204.345" y="276.7504" width="9.13" height="10.0171" style="fill:#e6e6e6;"></rect><rect x="186.0734" y="276.7504" width="9.1301" height="10.0171" style="fill:#e6e6e6;"></rect><rect x="240.8767" y="293.5453" width="9.1301" height="10.0171" style="fill:#e6e6e6;"></rect><rect x="222.6051" y="293.5453" width="9.13" height="10.0171" style="fill:#e6e6e6;"></rect><rect x="204.345" y="293.5453" width="9.13" height="10.0171" style="fill:#e6e6e6;"></rect><rect x="186.0734" y="293.5453" width="9.1301" height="10.0171" style="fill:#e6e6e6;"></rect></g><g><rect x="63.6754" y="160.8606" width="54.98873" height="158.3874" style="fill:#e6e6e6;"></rect><rect x="94.414" y="168.6702" width="16.1166" height="10.017" style="fill:#fafafa;"></rect><rect x="94.414" y="185.4763" width="16.1166" height="10.017" style="fill:#fafafa;"></rect><rect x="94.414" y="202.2712" width="16.1166" height="10.017" style="fill:#fafafa;"></rect><rect x="94.414" y="219.0773" width="16.1166" height="10.0171" style="fill:#fafafa;"></rect><rect x="94.414" y="235.8723" width="16.1166" height="10.0171" style="fill:#fafafa;"></rect><rect x="94.414" y="252.6672" width="16.1166" height="10.0172" style="fill:#fafafa;"></rect><rect x="94.414" y="269.4732" width="16.1166" height="10.0172" style="fill:#fafafa;"></rect><rect x="94.414" y="286.2683" width="16.1166" height="10.017" style="fill:#fafafa;"></rect><rect x="72.8518" y="168.6702" width="16.1166" height="10.017" style="fill:#fafafa;"></rect><rect x="72.8518" y="185.4763" width="16.1166" height="10.017" style="fill:#fafafa;"></rect><rect x="72.8518" y="202.2712" width="16.1166" height="10.017" style="fill:#fafafa;"></rect><rect x="72.8518" y="219.0773" width="16.1166" height="10.0171" style="fill:#fafafa;"></rect><rect x="72.8518" y="235.8723" width="16.1166" height="10.0171" style="fill:#fafafa;"></rect><rect x="72.8518" y="252.6672" width="16.1166" height="10.0172" style="fill:#fafafa;"></rect><rect x="72.8518" y="269.4732" width="16.1166" height="10.0172" style="fill:#fafafa;"></rect><rect x="72.8518" y="286.2683" width="16.1166" height="10.017" style="fill:#fafafa;"></rect></g><g><path d="M126.21686,317.018V147.8104h37.01344v169.1903l-37.01344,.0173Z" style="fill:#e0e0e0;"></path><rect x="155.9348" y="154.6584" width="4.4881" height="11.5215" style="fill:#fafafa;"></rect><rect x="146.9588" y="154.6584" width="4.488" height="11.5215" style="fill:#fafafa;"></rect><rect x="138.0004" y="154.6584" width="4.488" height="11.5215" style="fill:#fafafa;"></rect><rect x="129.02408" y="154.6584" width="4.48815" height="11.5215" style="fill:#fafafa;"></rect><rect x="155.9348" y="173.9864" width="4.4881" height="11.5216" style="fill:#fafafa;"></rect><rect x="146.9588" y="173.9864" width="4.488" height="11.5216" style="fill:#fafafa;"></rect><rect x="138.0004" y="173.9864" width="4.488" height="11.5216" style="fill:#fafafa;"></rect><rect x="129.02408" y="173.9864" width="4.48815" height="11.5216" style="fill:#fafafa;"></rect><rect x="155.9348" y="193.3147" width="4.4881" height="11.5216" style="fill:#fafafa;"></rect><rect x="146.9588" y="193.3147" width="4.488" height="11.5216" style="fill:#fafafa;"></rect><rect x="138.0004" y="193.3147" width="4.488" height="11.5216" style="fill:#fafafa;"></rect><rect x="129.02408" y="193.3147" width="4.48815" height="11.5216" style="fill:#fafafa;"></rect><rect x="155.9348" y="212.6428" width="4.4881" height="11.5215" style="fill:#fafafa;"></rect><rect x="146.9588" y="212.6428" width="4.488" height="11.5215" style="fill:#fafafa;"></rect><rect x="138.0004" y="212.6428" width="4.488" height="11.5215" style="fill:#fafafa;"></rect><rect x="129.02408" y="212.6428" width="4.48815" height="11.5215" style="fill:#fafafa;"></rect><rect x="155.9348" y="231.9881" width="4.4881" height="11.5216" style="fill:#fafafa;"></rect><rect x="146.9588" y="231.9881" width="4.488" height="11.5216" style="fill:#fafafa;"></rect><rect x="138.0004" y="231.9881" width="4.488" height="11.5216" style="fill:#fafafa;"></rect><rect x="129.02408" y="231.9881" width="4.48815" height="11.5216" style="fill:#fafafa;"></rect><rect x="155.9348" y="251.3164" width="4.4881" height="11.5215" style="fill:#fafafa;"></rect><rect x="146.9588" y="251.3164" width="4.488" height="11.5215" style="fill:#fafafa;"></rect><rect x="138.0004" y="251.3164" width="4.488" height="11.5215" style="fill:#fafafa;"></rect><rect x="129.02408" y="251.3164" width="4.48815" height="11.5215" style="fill:#fafafa;"></rect><rect x="155.9348" y="270.6446" width="4.4881" height="11.5216" style="fill:#fafafa;"></rect><rect x="146.9588" y="270.6446" width="4.488" height="11.5216" style="fill:#fafafa;"></rect><rect x="138.0004" y="270.6446" width="4.488" height="11.5216" style="fill:#fafafa;"></rect><rect x="129.02408" y="270.6446" width="4.48815" height="11.5216" style="fill:#fafafa;"></rect><rect x="155.9348" y="289.9725" width="4.4881" height="11.5217" style="fill:#fafafa;"></rect><rect x="146.9588" y="289.9725" width="4.488" height="11.5217" style="fill:#fafafa;"></rect><rect x="138.0004" y="289.9725" width="4.488" height="11.5217" style="fill:#fafafa;"></rect><rect x="129.02408" y="289.9725" width="4.48815" height="11.5217" style="fill:#fafafa;"></rect></g></g></g><g id="freepik--Shadow--inject-64"><path d="M703.71139,444.1678c0,3.3867-147.8662,6.1322-330.26849,6.1322s-330.26849-2.7455-330.26849-6.1322,147.8662-6.1323,330.26849-6.1323,330.26849,2.7455,330.26849,6.1323Z" style="fill:#f5f5f5;"></path></g><g id="freepik--Bus--inject-64"><g><g><rect x="380.42439" y="356.2049" width="79.66061" height="63.3973" transform="translate(840.50939 775.8071) rotate(180)" style="fill:#407BFF;"></rect><rect x="380.42439" y="356.2049" width="79.66061" height="63.3973" transform="translate(840.50939 775.8071) rotate(180)" style="opacity:.5;"></rect></g><g><ellipse cx="428.15" cy="408.549" rx="22.766" ry="35.6187" style="fill:#263238;"></ellipse><path d="M425.113,408.549c0,12.2948-3.01881,29.2178,3.037,35.6187h19.729c12.57329,0,22.766-15.947,22.766-35.6187s-10.19271-35.6187-22.766-35.6187c-5.40811,0-19.09021-.6459-19.729,0-5.85841,5.9232-3.037,24.4084-3.037,35.6187Z" style="fill:#263238;"></path><ellipse cx="426.56672" cy="407.45872" rx="11.60857" ry="18.16218" style="fill:#fff; opacity:.3;"></ellipse></g><g><rect x="118.9188" y="356.2049" width="79.6606" height="63.3973" transform="translate(317.4982 775.8071) rotate(180)" style="fill:#407BFF;"></rect><rect x="118.9188" y="356.2049" width="79.6606" height="63.3973" transform="translate(317.4982 775.8071) rotate(180)" style="opacity:.5;"></rect></g><g><ellipse cx="166.64438" cy="408.549" rx="22.76602" ry="35.6187" style="fill:#263238;"></ellipse><path d="M163.6073,408.549c0,12.2948-3.0187,29.2178,3.0371,35.6187h19.729c12.5733,0,22.766-15.947,22.766-35.6187s-10.1927-35.6187-22.766-35.6187c-5.4082,0-19.0902-.6459-19.729,0-5.8584,5.9232-3.0371,24.4084-3.0371,35.6187Z" style="fill:#263238;"></path><ellipse cx="165.0611" cy="407.45872" rx="11.6085" ry="18.16218" style="fill:#fff; opacity:.3;"></ellipse></g><g><ellipse cx="270.77177" cy="408.549" rx="22.76602" ry="35.6187" style="fill:#263238;"></ellipse><path d="M267.7347,408.549c0,12.2948-3.0187,29.2178,3.0371,35.6187h19.729c12.5733,0,22.766-15.947,22.766-35.6187s-10.1927-35.6187-22.766-35.6187c-5.4082,0-19.0902-.6459-19.729,0-5.8584,5.9232-3.0371,24.4084-3.0371,35.6187Z" style="fill:#263238;"></path><ellipse cx="269.1885" cy="407.45872" rx="11.6085" ry="18.16218" style="fill:#fff; opacity:.3;"></ellipse></g><path d="M290.5008,372.9303c-5.4082,0-19.0902-.6459-19.729,0-12.5734,0-22.7661,15.947-22.7661,35.6187s10.1927,35.6187,22.7661,35.6187h19.729c12.5733,0,22.766-15.947,22.766-35.6187s-10.1927-35.6187-22.766-35.6187Z" style="opacity:.3;"></path><g><ellipse cx="567.98659" cy="408.549" rx="22.766" ry="35.6187" style="fill:#263238;"></ellipse><path d="M564.94959,408.549c0,12.2948-3.0188,29.2178,3.037,35.6187h19.729c12.5733,0,22.766-15.947,22.766-35.6187s-10.1927-35.6187-22.766-35.6187c-5.4081,0-19.0902-.6459-19.729,0-5.8584,5.9232-3.037,24.4084-3.037,35.6187Z" style="fill:#263238;"></path><ellipse cx="566.40331" cy="407.45872" rx="11.60857" ry="18.16218" style="fill:#fff; opacity:.3;"></ellipse></g><path d="M587.87639,372.9303c-5.4082,0-19.0902-.6459-19.729,0-12.57339,0-22.7661,15.9471-22.7661,35.6187s10.19271,35.6187,22.7661,35.6187h19.729c12.5733,0,22.766-15.947,22.766-35.6187s-10.1927-35.6187-22.766-35.6187Z" style="opacity:.3;"></path><path d="M64.3708,214.23l613.94159,.5284c11.1525,.0096,18.3645,1.3018,20.5613,12.2847,7.5428,37.7117,26.2445,126.6463,20.934,163.9859l-1.4854,7.2721c-1.1451,12.0775-11.2437,21.3011-23.3219,21.3011h-242.08099c1.4547-4.8312,2.2674-10.165,2.2674-15.7776,0-21.7343-12.1049-39.3535-27.03679-39.3535s-27.03681,17.6192-27.03681,39.3535c0,5.6126,.8127,10.9464,2.2674,15.7776H188.6241c1.4546-4.8312,2.2673-10.165,2.2673-15.7776,0-21.7343-12.1048-39.3535-27.0368-39.3535s-27.0368,17.6192-27.0368,39.3535c0,5.6126,.8127,10.9464,2.2674,15.7776H64.3507c-12.9387,0-23.4275-10.5358-23.4275-23.5322V228.2088c0-13.0044,10.501-13.99,23.4476-13.9788Z" style="fill:#407BFF;"></path><path d="M40.9232,376.7471h11.3053v30.4242h-8.5383s-2.767-4.597-2.767-10.2677v-20.1565Z" style="fill:#fff; opacity:.5;"></path><path d="M586.63669,214.6795l-11.51869-17.351c-1.12451-1.6938-3.02241-2.7119-5.05551-2.7119H205.1888c-2.4195,0-4.6405,1.3384-5.7709,3.4776l-8.5265,16.1358,395.74529,.4495Z" style="fill:#407BFF;"></path><rect x="366.52859" y="395.1861" width="14.7875" height="6.0957" rx="3.0478" ry="3.0478" transform="translate(747.84469 796.4679) rotate(180)" style="fill:#fff;"></rect><path d="M215.7386,401.2295h8.692c1.6832,0,3.0478-1.3646,3.0478-3.0478h0c0-1.6833-1.3646-3.0479-3.0478-3.0479h-8.692c-1.6832,0-3.0478,1.3646-3.0478,3.0479h0c0,1.6832,1.3646,3.0478,3.0478,3.0478Z" style="fill:#fff;"></path><rect x="63.5918" y="395.1861" width="14.7875" height="6.0957" rx="3.0478" ry="3.0478" transform="translate(141.9711 796.4679) rotate(180)" style="fill:#fff;"></rect><rect x="189.41016" y="406.6709" width="211.80859" height="1" style="fill:#263238;"></rect><rect x="43.69043" y="406.6709" width="93.81787" height="1" style="fill:#263238;"></rect><rect x="120.12207" y="344.4541" width="1" height="63.00488" style="fill:#263238;"></rect><rect x="58.50342" y="316.29395" width="1" height="90.87695" style="fill:#263238;"></rect><rect x="202.12402" y="345.97266" width="1" height="60.26953" style="fill:#263238;"></rect><rect x="388.48926" y="347.25488" width="1" height="59.91602" style="fill:#263238;"></rect><rect x="209.1394" y="353.3295" width="173.56579" height="35.9671" transform="translate(591.84459 742.6261) rotate(180)" style="opacity:.2;"></rect><path d="M466.76379,194.6166h103.4824c2.0331,0,3.9961,1.3928,5.1205,3.0866l11.27,16.9763-131.9561-.4284,12.0832-19.6345Z" style="fill:#fff; opacity:.3;"></path><g><rect x="465.229" y="224.0934" width="61.22809" height="183.3653" transform="translate(991.68609 631.5521) rotate(180)" style="fill:#263238;"></rect><rect x="469.04869" y="236.9211" width="53.5295" height="136.5854" transform="translate(991.62688 610.4276) rotate(180)" style="fill:#fff; opacity:.3;"></rect><path d="M469.04869,241.4473l53.5295,23.8781v39.8884c-1.2466,1.2465-53.5295-26.7455-53.5295-26.7455v-37.021Z" style="fill:#fff; opacity:.3;"></path><polygon points="469.04869 287.4284 522.58309 313.1372 522.60779 322.2954 469.07839 295.55 469.04869 287.4284" style="fill:#fff; opacity:.3;"></polygon><path d="M504.43219,401.2295h8.692c1.6832,0,3.04781-1.3646,3.04781-3.0478h0c0-1.6833-1.36461-3.0479-3.04781-3.0479h-8.692c-1.68319,0-3.0478,1.3646-3.0478,3.0479h0c0,1.6832,1.36461,3.0478,3.0478,3.0478Z" style="fill:#fff;"></path><rect x="493.53429" y="235.4067" width="4.0651" height="139.6141" transform="translate(991.13368 610.4275) rotate(180)" style="fill:#263238;"></rect></g><path d="M466.76379,194.6166l-12.0832,19.6345H190.8914l8.2716-15.8682c1.2068-2.3151,3.5998-3.768,6.2105-3.7708" style="opacity:.2;"></path><polygon points="586.63669 214.6795 191.0805 214.6354 193.2295 210.3632 583.74829 210.3632 586.63669 214.6795" style="opacity:.2;"></polygon><g><rect x="435.83283" y="204.49317" width="8.90173" height=".49951" transform="translate(29.72779 463.9981) rotate(-57.21093)" style="fill:#263238;"></rect><rect x="432.1895" y="204.49317" width="8.90226" height=".49951" transform="translate(28.05762 460.93548) rotate(-57.21093)" style="fill:#263238;"></rect><rect x="428.54692" y="204.49317" width="8.90226" height=".49951" transform="translate(26.38767 457.87327) rotate(-57.21093)" style="fill:#263238;"></rect><rect x="424.90434" y="204.49317" width="8.90226" height=".49951" transform="translate(24.71773 454.81107) rotate(-57.21093)" style="fill:#263238;"></rect><rect x="421.26176" y="204.49317" width="8.90226" height=".49951" transform="translate(23.04778 451.74886) rotate(-57.21093)" style="fill:#263238;"></rect></g><g><rect x="345.41448" y="204.39803" width="8.90199" height=".50033" transform="translate(-11.45105 388.32481) rotate(-57.27149)" style="fill:#263238;"></rect><rect x="341.7719" y="204.39803" width="8.90199" height=".50033" transform="translate(-13.12424 385.26052) rotate(-57.27149)" style="fill:#263238;"></rect><rect x="338.12933" y="204.39803" width="8.90199" height=".50033" transform="translate(-14.79742 382.19623) rotate(-57.27149)" style="fill:#263238;"></rect><rect x="334.48675" y="204.39803" width="8.90199" height=".50033" transform="translate(-16.47061 379.13195) rotate(-57.27149)" style="fill:#263238;"></rect><rect x="330.84417" y="204.39803" width="8.90199" height=".50033" transform="translate(-18.14379 376.06766) rotate(-57.27149)" style="fill:#263238;"></rect></g><g><rect x="254.99689" y="204.49275" width="8.90173" height=".50033" transform="translate(-53.06331 312.30515) rotate(-57.27149)" style="fill:#263238;"></rect><rect x="251.35393" y="204.49275" width="8.90199" height=".50033" transform="translate(-54.73661 309.24065) rotate(-57.27149)" style="fill:#263238;"></rect><rect x="247.71136" y="204.49275" width="8.90199" height=".50033" transform="translate(-56.4098 306.17636) rotate(-57.27149)" style="fill:#263238;"></rect><rect x="244.06878" y="204.49275" width="8.90199" height=".50033" transform="translate(-58.08298 303.11207) rotate(-57.27149)" style="fill:#263238;"></rect><rect x="240.4262" y="204.49275" width="8.90199" height=".50033" transform="translate(-59.75617 300.04779) rotate(-57.27149)" style="fill:#263238;"></rect></g><g><polygon points="454.86729 346.7041 120.53687 346.7041 99.1134 316.9161 48.373 316.129 48.373 224.0934 454.86729 224.0934 454.86729 346.7041" style="fill:#263238;"></polygon><rect x="392.31649" y="235.5641" width="55.8764" height="97.0137" transform="translate(840.50939 568.1419) rotate(180)" style="fill:#fff; opacity:.3;"></rect><path d="M392.40479,238.0899l55.6999,23.8781v39.8883c-1.2971,1.2466-55.6999-26.7454-55.6999-26.7454v-37.021Z" style="fill:#fff; opacity:.3;"></path><polygon points="392.38929 284.071 448.09439 309.7798 448.12009 318.938 392.42019 292.1926 392.38929 284.071" style="fill:#fff; opacity:.3;"></polygon><polygon points="126.61586 332.4204 198.5794 332.4204 198.5794 235.4067 108.5763 235.4067 108.0004 308.4275 126.61586 332.4204" style="fill:#fff; opacity:.3;"></polygon><rect x="211.3837" y="235.4067" width="169.44939" height="97.0137" transform="translate(592.21679 567.8271) rotate(180)" style="fill:#fff; opacity:.3;"></rect><rect x="54.3845" y="235.4067" width="42.0509" height="69.7281" transform="translate(150.8199 540.5415) rotate(180)" style="fill:#fff; opacity:.3;"></rect><polygon points="380.83309 281.0162 268.8213 235.4067 211.3837 235.4067 211.3837 253.7153 380.83309 322.2954 380.83309 281.0162" style="fill:#fff; opacity:.3;"></polygon><polyline points="198.5794 293.1926 108.3911 258.8869 108.5089 243.9493 198.5794 278.4683 198.5794 289.4038" style="fill:#fff; opacity:.3;"></polyline><polygon points="108.5089 264.9091 198.5794 299.4282 198.5794 305.1348 108.391 270.2708 108.5089 264.9091" style="fill:#fff; opacity:.3;"></polygon><rect x="51.584" y="249.5643" width="398.68759" height="3.7163" transform="translate(501.85559 502.8449) rotate(180)" style="fill:#263238;"></rect></g><g><path d="M698.87369,227.0431c7.5428,37.7117,26.2445,126.6463,20.934,163.9859l-1.4854,7.2721c-1.1451,12.0775-11.2437,21.3011-23.3219,21.3011h-153.2085l-10.7433-204.9668,147.2638,.123c11.1525,.0096,18.3645,1.3018,20.5613,12.2847Z" style="fill:#fff; opacity:.3;"></path><path d="M715.64829,375.3007s-2.0531,13.5816-12.3182,15.0029c-10.26509,1.4213-36.4807,.3158-36.4807,.3158l1.9738-5.0439c2.2461-5.7401,7.7324-9.5588,13.8953-9.6717l32.9298-.6031Z" style="fill:#fff; opacity:.4;"></path><path d="M562.77439,375.3007s2.053,13.5816,12.3182,15.0029c10.2651,1.4213,36.4806,.3158,36.4806,.3158l-2.2161-5.6634c-2.0994-5.3652-7.2274-8.9345-12.9878-9.04l-33.5949-.6153Z" style="fill:#fff; opacity:.4;"></path><rect x="619.60419" y="406.4762" width="45.0846" height="13.126" transform="translate(1284.29297 826.0784) rotate(180)" style="fill:#263238;"></rect><path d="M698.46529,411.9277c0,1.9448,1.1744,3.5214,2.6231,3.5214,1.44861,0,2.623-1.5766,2.623-3.5214s-1.17439-3.5214-2.623-3.5214c-1.4487,0-2.6231,1.5766-2.6231,3.5214Z" style="fill:#fff;"></path><path d="M690.63669,411.9277c0,1.2969,.7832,2.3483,1.74931,2.3483,.966,0,1.74919-1.0514,1.74919-2.3483s-.78319-2.3483-1.74919-2.3483c-.96611,0-1.74931,1.0514-1.74931,2.3483Z" style="fill:#fff;"></path><path d="M675.37891,419.60254h-1c0-8.14648,6.62695-14.77344,14.77246-14.77344h27.38477v1h-27.38477c-7.59375,0-13.77246,6.17871-13.77246,13.77344Z" style="fill:#263238;"></path><path d="M577.88309,411.9277c0,1.9448-1.1744,3.5214-2.62309,3.5214s-2.623-1.5766-2.623-3.5214,1.17429-3.5214,2.623-3.5214,2.62309,1.5766,2.62309,3.5214Z" style="fill:#fff;"></path><ellipse cx="583.96239" cy="411.9277" rx="1.7492" ry="2.3483" style="fill:#fff;"></ellipse><path d="M601.96973,419.60254h-1c0-7.59473-6.17871-13.77344-13.77344-13.77344h-46.21484v-1h46.21484c8.14648,0,14.77344,6.62695,14.77344,14.77344Z" style="fill:#263238;"></path><path d="M694.95529,383.0992c0,3.5981,2.9168,6.5149,6.5149,6.5149s6.515-2.9168,6.515-6.5149-2.9169-6.515-6.515-6.515-6.5149,2.9169-6.5149,6.515Z" style="fill:#fff; opacity:.4;"></path><path d="M574.12589,383.0992c0,3.5981,2.9169,6.5149,6.515,6.5149s6.5149-2.9168,6.5149-6.5149-2.91679-6.515-6.5149-6.515-6.515,2.9169-6.515,6.515Z" style="fill:#fff; opacity:.4;"></path><g><path d="M691.54829,224.0934l20.127,119.2429c1.0045,5.9516-3.5826,11.378-9.6185,11.378h-129.8337c-7.6519,0-14.1167-5.6756-15.1074-13.2631l-15.3238-117.3578h149.7564Z" style="fill:#263238;"></path><polygon points="707.98519 332.4204 693.07849 243.5451 545.91919 243.5451 558.33709 332.8636 707.98519 332.4204" style="fill:#fff; opacity:.3;"></polygon><polygon points="598.73559 243.5451 700.09849 285.3988 704.79359 313.3915 545.91919 243.5451 598.73559 243.5451" style="fill:#fff; opacity:.3;"></polygon><polygon points="547.36779 253.9649 706.72719 323.6979 707.98519 332.4204 548.70409 263.5763 547.36779 253.9649" style="fill:#fff; opacity:.3;"></polygon><polygon points="547.22649 240.221 692.01539 240.221 689.29639 227.9091 545.91919 227.9091 547.22649 240.221" style="opacity:.5;"></polygon><rect x="596.85289" y="232.647" width="72.704" height="3.8768" transform="translate(1266.40977 469.1708) rotate(180)" style="fill:#fff;"></rect><rect x="588.05859" y="230.6901" width="4.9551" height="7.7906" transform="translate(1181.07228 469.1708) rotate(180)" style="fill:#fff;"></rect><rect x="582.244" y="230.6901" width="4.74529" height="7.7906" transform="translate(1169.23329 469.1708) rotate(180)" style="fill:#fff;"></rect></g><path d="M672.2998,367.23535c-53.38574,0-132.08984-.01562-133.2793-.01562v-1c1.79004,.00098,178.98242,.03516,181.52734,0l.01367,1c-.85547,.01172-21.34277,.01562-48.26172,.01562Z" style="fill:#263238;"></path></g><g><g><path d="M722.79518,292.304h0c5.1374,0,9.3021-4.1647,9.3021-9.3021v-32.7403c0-5.1374-4.1647-9.3021-9.3021-9.3021h0c-5.1374,0-9.3021,4.1647-9.3021,9.3021v32.7403c0,5.1374,4.1647,9.3021,9.3021,9.3021Z" style="fill:#407BFF;"></path><path d="M725.01548,244.1299s-2.4156-8.7564-8.6054-9.6623c-6.1899-.9058-17.2109,0-17.2109,0v4.6299s12.6817-.5033,14.7953,0c2.1136,.5032,4.5292,6.995,4.5292,6.995l6.4918-1.9626Z" style="fill:#407BFF;"></path></g><g style="opacity:.3;"><path d="M722.79518,292.304h0c5.1374,0,9.3021-4.1647,9.3021-9.3021v-32.7403c0-5.1374-4.1647-9.3021-9.3021-9.3021h0c-5.1374,0-9.3021,4.1647-9.3021,9.3021v32.7403c0,5.1374,4.1647,9.3021,9.3021,9.3021Z" style="fill:#fff;"></path><path d="M725.01548,244.1299s-2.4156-8.7564-8.6054-9.6623c-6.1899-.9058-17.2109,0-17.2109,0v4.6299s12.6817-.5033,14.7953,0c2.1136,.5032,4.5292,6.995,4.5292,6.995l6.4918-1.9626Z" style="fill:#fff;"></path></g></g><g><g><path d="M565.38789,295.1545h0c5.1374,0,9.30211-4.1647,9.30211-9.3021v-32.7403c0-5.1375-4.16471-9.3022-9.30211-9.3022h0c-5.1374,0-9.3021,4.1647-9.3021,9.3022v32.7403c0,5.1374,4.1647,9.3021,9.3021,9.3021Z" style="fill:#407BFF;"></path><path d="M567.60819,246.9804s-2.4156-8.7564-8.6054-9.6623c-6.1899-.9058-17.2109,0-17.2109,0v4.6299s12.6817-.5033,14.7953,0c2.1136,.5032,4.5292,6.995,4.5292,6.995l6.4918-1.9626Z" style="fill:#407BFF;"></path></g><g style="opacity:.3;"><path d="M565.38789,295.1545h0c5.1374,0,9.30211-4.1647,9.30211-9.3021v-32.7403c0-5.1375-4.16471-9.3022-9.30211-9.3022h0c-5.1374,0-9.3021,4.1647-9.3021,9.3022v32.7403c0,5.1374,4.1647,9.3021,9.3021,9.3021Z" style="fill:#fff;"></path><path d="M567.60819,246.9804s-2.4156-8.7564-8.6054-9.6623c-6.1899-.9058-17.2109,0-17.2109,0v4.6299s12.6817-.5033,14.7953,0c2.1136,.5032,4.5292,6.995,4.5292,6.995l6.4918-1.9626Z" style="fill:#fff;"></path></g></g></g></g></svg>
